Coordinates
version=1
nRows=24
nColumns=24
inDegrees=yes

Units are S.I. units (second, meters, Newtons, ...)
Angles are in degrees.

endheader
time	pelvis_tilt	pelvis_list	pelvis_rotation	pelvis_tx	pelvis_ty	pelvis_tz	hip_flexion_r	hip_adduction_r	hip_rotation_r	knee_angle_r	ankle_angle_r	subtalar_angle_r	mtp_angle_r	hip_flexion_l	hip_adduction_l	hip_rotation_l	knee_angle_l	ankle_angle_l	subtalar_angle_l	mtp_angle_l	lumbar_extension	lumbar_bending	lumbar_rotation
      1.13300000	     -1.71033579	     -9.78305421	     -5.65847531	     -0.05614208	      0.99193042	      0.29542554	    -14.02603349	      9.90765530	     -2.89273102	     -6.10840457	      4.63344966	     -3.99248602	      3.24890915	     24.98119800	    -12.56116528	    -12.25882383	      2.57969377	      2.71444970	     -4.76526782	     -7.31560935	    -11.37616600	     11.05197997	      8.28606288
      1.13716667	     -1.61076786	     -9.68179976	     -5.96879051	     -0.05059776	      0.99162257	      0.29593871	    -14.39064449	      9.66897194	     -2.54679279	     -6.28541304	      4.61201965	     -4.01186812	      3.56135219	     24.87394630	    -12.62199591	    -12.22825859	      2.07361411	      2.67665768	     -5.15108347	     -7.18394391	    -11.52015857	     10.75428710	      8.65829452
      1.14133333	     -1.54677304	     -9.60023663	     -6.28886151	     -0.04507107	      0.99129240	      0.29647352	    -14.69960400	      9.45167987	     -2.17069169	     -6.49995159	      4.63825570	     -4.02631173	      3.74032701	     24.82042034	    -12.71167094	    -12.19974233	      1.48300572	      2.59446761	     -5.57800756	     -7.10975977	    -11.62087303	     10.49542299	      8.89280584
      1.14550000	     -1.43281843	     -9.48196510	     -6.62250224	     -0.03949707	      0.99111229	      0.29702605	    -15.04434612	      9.18085756	     -1.80300008	     -6.73027383	      4.57754894	     -4.07856445	      3.94498898	     24.68910775	    -12.76375906	    -12.21838809	      0.86999238	      2.47730286	     -6.04957894	     -7.02415556	    -11.77999504	     10.16791979	      9.26628233
      1.14966667	     -1.29603144	     -9.35483982	     -6.96628840	     -0.03389190	      0.99102128	      0.29760094	    -15.40046308	      8.89132005	     -1.42288440	     -6.97878436	      4.50334349	     -4.12959274	      4.16250102	     24.52023161	    -12.80835060	    -12.28171233	      0.23231873	      2.31529500	     -6.52301020	     -6.93331215	    -11.95688716	      9.81826996	      9.63045084
      1.15383333	     -1.16693376	     -9.21866315	     -7.31224201	     -0.02826129	      0.99097562	      0.29816762	    -15.72586606	      8.58872013	     -1.05979413	     -7.25836543	      4.38677109	     -4.19759562	      4.40115331	     24.35210669	    -12.84092164	    -12.37310535	     -0.42526234	      2.10694493	     -7.00312539	     -6.83341705	    -12.12016897	      9.45429792	     10.00357192
      1.15800000	     -1.06983753	     -9.07955568	     -7.65189638	     -0.02257863	      0.99092566	      0.29869977	    -16.00526076	      8.28472114	     -0.70175285	     -7.55453104	      4.25585359	     -4.25596745	      4.62564718	     24.21371986	    -12.86429867	    -12.47331365	     -1.09716085	      1.85576605	     -7.50348663	     -6.74097015	    -12.23554388	      9.09789721	     10.33527915
      1.16216667	     -0.98315059	     -8.94144975	     -7.97931980	     -0.01690119	      0.99089444	      0.29916042	    -16.24684567	      7.98016822	     -0.37169568	     -7.88694475	      4.06266534	     -4.30245510	      4.80561826	     24.08308618	    -12.87553388	    -12.55546510	     -1.77388408	      1.60729925	     -8.02169915	     -6.66972891	    -12.35262088	      8.74906177	     10.60894859
      1.16633333	     -0.81101948	     -8.78025160	     -8.28189444	     -0.01113922	      0.99106147	      0.29959244	    -16.57584312	      7.64220618	     -0.07532870	     -8.21461964	      3.89768147	     -4.42007428	      5.12164803	     23.83456183	    -12.84181238	    -12.73898088	     -2.39617766	      1.15664011	     -8.53116789	     -6.54472144	    -12.51990805	      8.35836329	     11.08151198
      1.17050000	     -0.60623121	     -8.61331092	     -8.60562958	     -0.00538844	      0.99134762	      0.30001434	    -16.90805154	      7.27703422	      0.21196968	     -8.57868818	      3.61453896	     -4.45759441	      5.74963916	     23.52606278	    -12.80118159	    -12.96029070	     -3.00397119	      0.80101774	     -8.97422689	     -6.28843030	    -12.75705960	      7.94184504	     11.56534628
      1.17466667	     -0.54074408	     -8.46230445	     -8.90133989	      0.00043927	      0.99144961	      0.30039585	    -17.07988314	      6.96711667	      0.48031681	     -8.96086510	      3.24624992	     -4.71151211	     11.94525990	     23.38737140	    -12.77920203	    -13.18507466	     -3.62396617	      0.31769316	     -9.41529411	     -3.66654013	    -12.80569047	      7.59071992	     11.74647087
      1.17883333	     -0.54187614	     -8.30744508	     -9.12326134	      0.00627863	      0.99144073	      0.30052645	    -17.14244239	      6.67077977	      0.62903650	     -9.41554293	      2.96474150	     -4.70130991	     11.96102526	     23.33896178	    -12.71243345	    -13.28293054	     -4.23145742	     -0.18345421	     -9.89736764	     -3.66274782	    -12.76772100	      7.27137615	     11.83696523
      1.18300000	     -0.46539603	     -8.13260236	     -9.31307950	      0.01216895	      0.99160588	      0.30058122	    -17.27443169	      6.34852581	      0.74406054	     -9.88176486	      2.68768594	     -4.79325401	     12.01414603	     23.18485182	    -12.59470993	    -13.39774305	     -4.78352077	     -0.73921863	    -10.47136695	     -3.64523717	    -12.79409603	      6.91231975	     12.10966343
      1.18716667	     -0.39996739	     -7.95167476	     -9.48758699	      0.01809827	      0.99181195	      0.30058850	    -17.36941575	      6.02444232	      0.82443947	    -10.37779700	      2.30501978	     -4.87443655	     12.08830675	     23.03316375	    -12.46633088	    -13.55063598	     -5.31032226	     -1.29039501	    -10.91495360	     -3.62289180	    -12.80997861	      6.55675778	     12.28116057
      1.19133333	     -0.30727240	     -7.77660338	     -9.64284694	      0.02402055	      0.99211805	      0.30049495	    -17.46304575	      5.70069893	      0.86866275	    -10.91765436	      1.88130974	     -4.91447036	     12.27638031	     22.83964506	    -12.32585683	    -13.70345043	     -5.80129145	     -1.85609274	    -11.33684756	     -3.56137024	    -12.86959569	      6.21261508	     12.52403868
      1.19550000	     -0.29864541	     -7.57536988	     -9.75417245	      0.03006161	      0.99231653	      0.30034461	    -17.44768906	      5.38626831	      0.86551282	    -11.49252697	      1.43502364	     -5.07032585	     12.40433799	     22.75031697	    -12.15537827	    -13.86211959	     -6.30184344	     -2.37827453	    -11.67548247	     -3.52481251	    -12.79488089	      5.86326331	     12.57610955
      1.19966667	     -0.29499747	     -7.38862067	     -9.80911440	      0.03613826	      0.99253359	      0.30006583	    -17.41123277	      5.09975507	      0.79679101	    -12.08322017	      0.87545782	     -5.17360313	     12.48756182	     22.67792790	    -11.98099235	    -13.99619148	     -6.79882277	     -2.87866764	    -11.88820912	     -3.50426690	    -12.71428074	      5.54484241	     12.61585173
      1.20383333	     -0.26287778	     -7.16973393	     -9.87646385	      0.04219875	      0.99286026	      0.29972959	    -17.34676600	      4.77013059	      0.71347003	    -12.77665143	      0.40182886	     -5.34743084	     12.68174747	     22.53970699	    -11.75777934	    -14.12883231	     -7.22702769	     -3.40488292	    -12.28515291	     -3.45438687	    -12.66280391	      5.19041355	     12.70078112
      1.20800000	     -0.25366685	     -6.96043393	     -9.86189401	      0.04837057	      0.99316110	      0.29927669	    -17.26137374	      4.47702581	      0.54598683	    -13.44882672	     -0.23440127	     -5.47327819	     12.79088751	     22.45791773	    -11.53213300	    -14.25968727	     -7.69742629	     -3.82767635	    -12.39322843	     -3.42772077	    -12.57202369	      4.86270130	     12.70127497
      1.21216667	     -0.09589959	     -6.65304571	     -9.73599625	      0.05464596	      0.99369664	      0.29840506	    -17.28342214	      4.04889125	      0.11716517	    -14.18631477	     -0.79103526	     -5.47830683	     14.48016883	     22.17528185	    -11.09115883	    -14.21739660	     -8.00716046	     -4.36195283	    -12.86735717	     -2.99395543	    -12.61522806	      4.43486094	     12.73591635
      1.21633333	     -0.18474568	     -6.45312221	     -9.78980380	      0.06078166	      0.99397411	      0.29811060	    -17.00091130	      3.79029705	      0.06873265	    -15.03183342	     -1.45918654	     -5.85041704	     14.74661935	     22.16962463	    -10.93038675	    -14.46030991	     -8.46905216	     -4.70548933	    -12.89384728	     -2.93122200	    -12.41733405	      4.13815377	     12.56595082
      1.22050000	     -0.19790914	     -6.20009137	     -9.72248738	      0.06704054	      0.99435320	      0.29748502	    -16.77484132	      3.47209604	     -0.19036496	    -15.90057869	     -2.16205722	     -6.11060110	     15.05776913	     22.07914566	    -10.63656495	    -14.57060876	     -8.86617692	     -5.01681244	    -12.93705649	     -2.86002206	    -12.27751534	      3.79323924	     12.51778209
      1.22466667	     -0.18531976	     -5.94322297	     -9.61600395	      0.07332809	      0.99478407	      0.29680117	    -16.55576344	      3.15549019	     -0.48734303	    -16.79419372	     -2.92914475	     -6.34574121	     15.18746472	     21.97599615	    -10.33066011	    -14.69539555	     -9.29857152	     -5.20857785	    -12.89081016	     -2.83109438	    -12.16696230	      3.42484048	     12.45452735
      1.22883333	     -0.14757262	     -5.60398245	     -9.27301780	      0.07974850	      0.99515987	      0.29537275	    -16.32686659	      2.75580406	     -1.19246446	    -17.74717691	     -3.64667704	     -6.41569415	     18.38884726	     21.86381809	     -9.77832578	    -14.41983292	     -9.61082524	     -5.56233373	    -13.29355596	     -2.20583510	    -12.05405069	      3.06665141	     12.02613090
